<mxfile host="65bd71144e">
    <diagram id="840Hda_U422nhBezbVme" name="第 1 页">
        <mxGraphModel dx="188" dy="792" grid="1" gridSize="10" guides="1" tooltips="1" connect="1" arrows="1" fold="1" page="1" pageScale="1" pageWidth="827" pageHeight="1169" math="0" shadow="0">
            <root>
                <mxCell id="0"/>
                <mxCell id="1" parent="0"/>
                <mxCell id="2" value="" style="shape=tapeData;whiteSpace=wrap;html=1;perimeter=ellipsePerimeter;" vertex="1" parent="1">
                    <mxGeometry x="50" y="230" width="100" height="150" as="geometry"/>
                </mxCell>
                <mxCell id="4" style="edgeStyle=none;html=1;" edge="1" parent="1" source="3" target="2">
                    <mxGeometry relative="1" as="geometry"/>
                </mxCell>
                <mxCell id="3" value="" style="shape=tapeData;whiteSpace=wrap;html=1;perimeter=ellipsePerimeter;" vertex="1" parent="1">
                    <mxGeometry x="90" y="50" width="80" height="60" as="geometry"/>
                </mxCell>
            </root>
        </mxGraphModel>
    </diagram>
</mxfile>